<mxfile host="app.diagrams.net" modified="2023-03-27T01:15:05.412Z" agent="Mozilla/5.0 (Windows NT 10.0; Win64; x64) AppleWebKit/537.36 (KHTML, like Gecko) Chrome/111.0.0.0 Safari/537.36" etag="D-SwClEf2T7rNyJL9kRW" version="21.1.1" type="github">
  <diagram id="prtHgNgQTEPvFCAcTncT" name="Page-1">
    <mxGraphModel dx="1050" dy="541" grid="1" gridSize="10" guides="1" tooltips="1" connect="1" arrows="1" fold="1" page="1" pageScale="1" pageWidth="827" pageHeight="1169" math="0" shadow="0">
      <root>
        <mxCell id="0" />
        <mxCell id="1" parent="0" />
        <mxCell id="Q3FKu_BGskq38UTWf5Vo-16" style="edgeStyle=orthogonalEdgeStyle;rounded=0;orthogonalLoop=1;jettySize=auto;html=1;exitX=0.5;exitY=0;exitDx=0;exitDy=0;" edge="1" parent="1" source="Q3FKu_BGskq38UTWf5Vo-1">
          <mxGeometry relative="1" as="geometry">
            <mxPoint x="430" y="160" as="targetPoint" />
          </mxGeometry>
        </mxCell>
        <mxCell id="Q3FKu_BGskq38UTWf5Vo-22" style="edgeStyle=orthogonalEdgeStyle;rounded=0;orthogonalLoop=1;jettySize=auto;html=1;exitX=0.5;exitY=1;exitDx=0;exitDy=0;entryX=0.5;entryY=0;entryDx=0;entryDy=0;" edge="1" parent="1" source="Q3FKu_BGskq38UTWf5Vo-1" target="Q3FKu_BGskq38UTWf5Vo-11">
          <mxGeometry relative="1" as="geometry" />
        </mxCell>
        <mxCell id="Q3FKu_BGskq38UTWf5Vo-1" value="infocenter" style="rounded=0;whiteSpace=wrap;html=1;" vertex="1" parent="1">
          <mxGeometry x="370" y="200" width="120" height="60" as="geometry" />
        </mxCell>
        <mxCell id="Q3FKu_BGskq38UTWf5Vo-2" value="Nacos" style="rounded=1;whiteSpace=wrap;html=1;" vertex="1" parent="1">
          <mxGeometry x="370" y="90" width="120" height="60" as="geometry" />
        </mxCell>
        <mxCell id="Q3FKu_BGskq38UTWf5Vo-15" style="edgeStyle=orthogonalEdgeStyle;rounded=0;orthogonalLoop=1;jettySize=auto;html=1;exitX=0.5;exitY=0;exitDx=0;exitDy=0;" edge="1" parent="1" source="Q3FKu_BGskq38UTWf5Vo-3" target="Q3FKu_BGskq38UTWf5Vo-2">
          <mxGeometry relative="1" as="geometry" />
        </mxCell>
        <mxCell id="Q3FKu_BGskq38UTWf5Vo-21" style="edgeStyle=orthogonalEdgeStyle;rounded=0;orthogonalLoop=1;jettySize=auto;html=1;exitX=0.5;exitY=1;exitDx=0;exitDy=0;entryX=0.25;entryY=0;entryDx=0;entryDy=0;" edge="1" parent="1" source="Q3FKu_BGskq38UTWf5Vo-3" target="Q3FKu_BGskq38UTWf5Vo-11">
          <mxGeometry relative="1" as="geometry" />
        </mxCell>
        <mxCell id="Q3FKu_BGskq38UTWf5Vo-26" style="edgeStyle=orthogonalEdgeStyle;rounded=0;orthogonalLoop=1;jettySize=auto;html=1;exitX=0;exitY=0.5;exitDx=0;exitDy=0;entryX=0.5;entryY=1;entryDx=0;entryDy=0;" edge="1" parent="1" source="Q3FKu_BGskq38UTWf5Vo-3" target="Q3FKu_BGskq38UTWf5Vo-25">
          <mxGeometry relative="1" as="geometry" />
        </mxCell>
        <mxCell id="Q3FKu_BGskq38UTWf5Vo-3" value="perfcenter" style="rounded=0;whiteSpace=wrap;html=1;" vertex="1" parent="1">
          <mxGeometry x="200" y="200" width="120" height="60" as="geometry" />
        </mxCell>
        <mxCell id="Q3FKu_BGskq38UTWf5Vo-17" style="edgeStyle=orthogonalEdgeStyle;rounded=0;orthogonalLoop=1;jettySize=auto;html=1;exitX=0.5;exitY=0;exitDx=0;exitDy=0;entryX=0.5;entryY=1;entryDx=0;entryDy=0;" edge="1" parent="1" source="Q3FKu_BGskq38UTWf5Vo-4" target="Q3FKu_BGskq38UTWf5Vo-2">
          <mxGeometry relative="1" as="geometry" />
        </mxCell>
        <mxCell id="Q3FKu_BGskq38UTWf5Vo-20" style="edgeStyle=orthogonalEdgeStyle;rounded=0;orthogonalLoop=1;jettySize=auto;html=1;exitX=1;exitY=0.5;exitDx=0;exitDy=0;" edge="1" parent="1" source="Q3FKu_BGskq38UTWf5Vo-4" target="Q3FKu_BGskq38UTWf5Vo-8">
          <mxGeometry relative="1" as="geometry" />
        </mxCell>
        <mxCell id="Q3FKu_BGskq38UTWf5Vo-23" style="edgeStyle=orthogonalEdgeStyle;rounded=0;orthogonalLoop=1;jettySize=auto;html=1;exitX=0.5;exitY=1;exitDx=0;exitDy=0;entryX=1;entryY=0.5;entryDx=0;entryDy=0;" edge="1" parent="1" source="Q3FKu_BGskq38UTWf5Vo-4" target="Q3FKu_BGskq38UTWf5Vo-11">
          <mxGeometry relative="1" as="geometry" />
        </mxCell>
        <mxCell id="Q3FKu_BGskq38UTWf5Vo-4" value="petitioncenter" style="rounded=0;whiteSpace=wrap;html=1;" vertex="1" parent="1">
          <mxGeometry x="550" y="200" width="120" height="55" as="geometry" />
        </mxCell>
        <mxCell id="Q3FKu_BGskq38UTWf5Vo-8" value="协同平台" style="rounded=0;whiteSpace=wrap;html=1;" vertex="1" parent="1">
          <mxGeometry x="740" y="80" width="120" height="60" as="geometry" />
        </mxCell>
        <mxCell id="Q3FKu_BGskq38UTWf5Vo-10" value="拉取信访信息（沪申函）" style="text;html=1;align=center;verticalAlign=middle;resizable=0;points=[];autosize=1;strokeColor=none;fillColor=none;" vertex="1" parent="1">
          <mxGeometry x="720" y="170" width="160" height="30" as="geometry" />
        </mxCell>
        <mxCell id="Q3FKu_BGskq38UTWf5Vo-11" value="普元流程管理" style="whiteSpace=wrap;html=1;aspect=fixed;" vertex="1" parent="1">
          <mxGeometry x="270" y="410" width="100" height="100" as="geometry" />
        </mxCell>
        <mxCell id="Q3FKu_BGskq38UTWf5Vo-25" value="WPS" style="rounded=0;whiteSpace=wrap;html=1;" vertex="1" parent="1">
          <mxGeometry x="70" y="70" width="120" height="60" as="geometry" />
        </mxCell>
      </root>
    </mxGraphModel>
  </diagram>
</mxfile>
